<?xml version="1.0" encoding="UTF-8" standalone="no"?>
<svg
   xmlns:dc="http://purl.org/dc/elements/1.1/"
   xmlns:cc="http://creativecommons.org/ns#"
   xmlns:rdf="http://www.w3.org/1999/02/22-rdf-syntax-ns#"
   xmlns:svg="http://www.w3.org/2000/svg"
   xmlns="http://www.w3.org/2000/svg"
   id="svg8"
   version="1.1"
   viewBox="0 0 159.86996 33.415695"
   height="33.415695mm"
   width="159.86996mm">
  <defs
     id="defs2" />
  <metadata
     id="metadata5">
    <rdf:RDF>
      <cc:Work
         rdf:about="">
        <dc:format>image/svg+xml</dc:format>
        <dc:type
           rdf:resource="http://purl.org/dc/dcmitype/StillImage" />
        <dc:title></dc:title>
      </cc:Work>
    </rdf:RDF>
  </metadata>
  <g
     transform="translate(-25.781761,-140.24441)"
     id="layer1">
    <path
       id="path159"
       d="m 73.717955,173.4685 c -0.653186,-0.49676 -1.099926,-1.67038 -1.176412,-3.09052 -0.0418,-0.77611 -0.221696,-2.28423 -0.399768,-3.35139 -0.178075,-1.06715 -0.415921,-3.37364 -0.528552,-5.12553 -0.112628,-1.75189 -0.431352,-5.2298 -0.708279,-7.72869 -0.576704,-5.20403 -0.411957,-5.95692 1.265008,-5.78102 0.61238,0.0642 1.171924,-0.0916 1.347254,-0.37534 0.21251,-0.34385 0.665382,-0.41664 1.554417,-0.24985 1.072155,0.20113 1.496765,0.60537 2.920665,2.78053 0.916365,1.39985 2.170045,3.18018 2.785956,3.95629 0.615911,0.77612 2.081481,2.83987 3.256816,4.58612 1.175336,1.74624 2.532232,3.54364 3.015326,3.9942 l 0.878346,0.81921 0.200088,-2.40671 c 0.110046,-1.32369 0.165644,-5.6408 0.12355,-9.59359 -0.08063,-7.57112 0.08643,-8.51172 1.51178,-8.51172 0.363192,0 0.913437,0.25308 1.222763,0.56241 0.475244,0.47524 0.531308,1.19971 0.361728,4.6743 -0.110374,2.26154 -0.239413,7.07172 -0.286752,10.68927 -0.09183,7.0175 -0.193509,7.44386 -1.932979,8.10521 -0.635303,0.24154 -1.12183,0.15085 -1.954777,-0.36436 -1.21274,-0.75013 -4.073877,-3.92055 -4.803171,-5.32239 -0.252353,-0.48507 -1.126967,-1.6757 -1.943587,-2.64583 -0.816621,-0.97014 -1.687523,-2.16077 -1.935335,-2.64584 -0.553593,-1.0836 -2.144402,-2.82222 -2.582281,-2.82222 -0.18918,0 -0.236382,2.21935 -0.114416,5.37986 0.114184,2.95892 0.249107,7.44361 0.299833,9.96597 l 0.09222,4.58611 -1.058333,0.0919 c -0.582084,0.0505 -1.217084,-0.0288 -1.411111,-0.17639 z m -39.881526,-4.2639 c -0.184327,-0.16029 -0.994225,-0.49805 -1.799775,-0.75058 -0.805549,-0.25252 -2.234299,-1.04 -3.174999,-1.74993 -1.428233,-1.07788 -1.837759,-1.66082 -2.482668,-3.53398 -0.662224,-1.92346 -0.723332,-2.52501 -0.428729,-4.22044 1.004545,-5.78109 5.867543,-11.79745 12.451986,-15.40523 2.386252,-1.30749 2.458482,-1.32296 3.880556,-0.83132 1.85531,0.64143 2.190615,1.86984 0.679384,2.48897 -4.170871,1.70873 -8.436366,4.73132 -10.488167,7.43205 -3.655979,4.81228 -4.493997,8.89135 -2.298624,11.1886 1.797219,1.88061 3.867776,2.56208 7.850904,2.58389 2.507509,0.0137 3.605588,0.1579 3.96875,0.52106 0.886595,0.8866 0.500075,1.56674 -1.226261,2.15779 -1.371924,0.4697 -6.429265,0.55661 -6.932357,0.11912 z m 76.638841,-0.2197 c -0.3124,-0.3124 -0.6088,-1.64975 -0.76231,-3.43958 -0.13815,-1.61065 -0.3251,-3.4047 -0.41544,-3.98678 -0.0904,-0.58208 -0.31824,-2.32833 -0.50642,-3.88056 -0.18818,-1.55222 -0.41241,-3.29847 -0.49827,-3.88055 -0.37244,-2.52488 -0.26473,-7.93835 0.16834,-8.46016 0.24451,-0.29462 0.33704,-0.53567 0.20562,-0.53567 -0.40754,0 -3.46182,1.4573 -4.7735,2.2776 -2.38567,1.49196 -3.898208,1.31959 -3.88773,-0.44305 0.005,-0.82386 0.39169,-1.16717 2.86185,-2.54011 1.5709,-0.87312 3.27492,-1.70469 3.7867,-1.84793 8.19218,-2.29279 9.91214,-2.49166 10.6883,-1.23581 0.56834,0.91959 -0.41976,1.56458 -3.33365,2.17608 -3.47576,0.72941 -4.06597,1.00866 -3.5392,1.67452 0.20357,0.25733 0.47156,2.21411 0.59552,4.34842 0.12396,2.1343 0.29868,4.51555 0.38827,5.29166 0.0896,0.77612 0.23904,2.12549 0.33213,2.99862 0.26527,2.48834 1.27919,9.27941 1.49171,9.99125 0.23079,0.77304 -0.79175,2.00319 -1.6651,2.00319 -0.34413,0 -0.8557,-0.23001 -1.13682,-0.51114 z m 64.13712,0.30701 c -0.21714,-0.0914 -0.32932,-2.2168 -0.29178,-5.52839 0.0335,-2.95899 -0.0757,-6.09436 -0.24272,-6.96748 -0.76541,-4.00094 -1.17407,-6.57805 -1.13575,-7.16238 0.0229,-0.34979 -0.25488,-1.32789 -0.61737,-2.17356 l -0.65908,-1.53757 -1.34887,0.33165 c -2.49899,0.61443 -2.75677,0.6681 -3.93935,0.82016 -1.30165,0.16737 -2.87758,-0.39519 -2.87758,-1.02722 0,-1.26504 1.71794,-1.99473 6.70278,-2.84701 0.48507,-0.0829 1.6757,-0.29985 2.64584,-0.48202 0.97013,-0.18218 4.06028,-0.66084 6.86699,-1.06371 4.41041,-0.63305 5.17117,-0.66442 5.60449,-0.2311 0.70401,0.70401 0.26287,1.5633 -1.08944,2.12211 -1.16385,0.48094 -7.33215,1.69523 -8.47163,1.66773 -0.70768,-0.0171 -0.77692,0.6377 -0.25518,2.41303 0.1992,0.67781 0.44021,1.94677 0.53558,2.81989 0.0954,0.87313 0.26375,1.98438 0.37417,2.46944 0.89354,3.92532 1.237,15.15368 0.49101,16.05253 -0.41344,0.49818 -1.50969,0.65309 -2.29211,0.3239 z M 54.579761,168.88806 c -0.63059,-0.0782 -1.146528,-0.25222 -1.146528,-0.38659 0,-0.13437 -0.458868,-0.44742 -1.019707,-0.69567 -1.051506,-0.46545 -2.860848,-2.83677 -2.860848,-3.74943 0,-0.28375 -0.137751,-0.60105 -0.306112,-0.7051 -0.561252,-0.34687 -0.233413,-6.28209 0.414705,-7.50785 0.32833,-0.62095 0.596963,-1.42331 0.596963,-1.78302 0,-0.3597 0.502642,-1.43915 1.116982,-2.39876 0.746799,-1.16653 1.094101,-2.12151 1.047939,-2.88155 -0.05856,-0.96412 0.154911,-1.29902 1.405392,-2.20486 2.412538,-1.74764 5.799181,-1.16543 8.527205,1.46594 1.961684,1.89218 2.364641,2.79424 2.587939,5.79337 0.29023,3.89818 -0.266178,7.28319 -1.670639,10.16367 -2.121002,4.35004 -4.095153,5.46048 -8.693291,4.88985 z m 3.783985,-3.49605 c 3.431199,-2.88717 4.947395,-11.78806 2.459165,-14.43666 -1.228989,-1.3082 -3.087545,-2.37509 -3.716826,-2.13361 -0.298414,0.11451 -0.455297,0.34942 -0.348629,0.52201 0.159372,0.25787 -0.797254,1.81092 -1.548172,2.5134 -0.218034,0.20397 -1.001497,1.54711 -1.646223,2.82222 -2.324817,4.59793 -1.364011,10.78268 1.770851,11.39907 1.558581,0.30645 1.957178,0.21615 3.029834,-0.68643 z m 95.611154,2.72274 c -2.67011,-0.44128 -5.34077,-1.87587 -6.79136,-3.64807 -2.14681,-2.6228 -2.80742,-4.54485 -2.75616,-8.01902 0.0392,-2.65901 0.18131,-3.27117 1.26908,-5.46806 0.67369,-1.36061 1.74038,-3.04144 2.37042,-3.73517 0.63003,-0.69374 1.54239,-1.74652 2.02746,-2.33951 1.24814,-1.52584 3.38938,-2.67166 4.19096,-2.24267 1.95632,1.04699 1.79937,2.64301 -0.29281,2.97756 -1.08082,0.17283 -1.71487,0.60979 -2.97489,2.05018 -2.03699,2.32859 -3.68903,5.42068 -3.96262,7.41679 -0.52382,3.82163 1.4293,8.00409 4.45047,9.53033 1.34459,0.67927 2.14279,0.80198 5.21645,0.80198 3.36539,0 3.6216,0.0487 3.52778,0.67017 -0.25028,1.65781 -3.02072,2.54328 -6.27478,2.00549 z m -29.89792,-0.50957 c -0.96033,-0.47561 -1.00476,-1.42234 -0.29204,-6.22303 0.27366,-1.84326 0.59129,-4.54201 0.70585,-5.99722 0.45984,-5.84111 1.52265,-13.24888 2.04303,-14.23992 0.26969,-0.51364 0.60744,-0.61547 1.5396,-0.4642 0.65676,0.10657 1.28576,0.0455 1.39778,-0.13578 0.59808,-0.96771 2.77987,0.75903 3.16297,2.50328 0.12291,0.55962 0.52986,1.65163 0.90432,2.42668 0.37447,0.77505 0.68085,1.54074 0.68085,1.70152 0,0.16079 0.55563,1.60978 1.23472,3.21998 0.6791,1.6102 1.23472,3.12582 1.23472,3.36805 0,0.89107 2.3202,6.21699 4.08631,9.37998 1.0646,1.90661 0.91922,3.17652 -0.36366,3.17652 -0.46752,0 -1.10301,-0.25299 -1.41222,-0.56219 -0.57076,-0.57077 -2.2293,-3.96808 -3.72228,-7.62463 -0.4521,-1.10727 -1.06621,-2.10693 -1.36469,-2.22147 -0.29848,-0.11454 -1.78025,-0.30368 -3.2928,-0.42032 l -2.7501,-0.21208 v 0.92917 c 0,0.51105 -0.15536,1.60614 -0.34525,2.43354 -0.18989,0.8274 -0.58314,3.07124 -0.8739,4.9863 -0.48126,3.16988 -0.96121,4.52903 -1.55807,4.41225 -0.12177,-0.0238 -0.57858,-0.22022 -1.01514,-0.43643 z m 9.08403,-15.2058 c 0,-0.69331 -2.37751,-6.08821 -2.79741,-6.34773 -0.17,-0.10506 -0.642,0.90503 -1.04889,2.24464 -0.76816,2.52899 -0.90597,3.62989 -0.50463,4.03123 0.26205,0.26205 4.35093,0.32958 4.35093,0.0719 z"
       style="fill:#000000;stroke-width:0.35277775" />
  </g>
</svg>
