<?xml version="1.0" encoding="UTF-8" standalone="no"?>
<svg
   xmlns:dc="http://purl.org/dc/elements/1.1/"
   xmlns:cc="http://creativecommons.org/ns#"
   xmlns:rdf="http://www.w3.org/1999/02/22-rdf-syntax-ns#"
   xmlns:svg="http://www.w3.org/2000/svg"
   xmlns="http://www.w3.org/2000/svg"
   id="svg8"
   version="1.1"
   viewBox="0 0 101.17468 31.991016"
   height="31.991016mm"
   width="101.17468mm">
  <defs
     id="defs2" />
  <metadata
     id="metadata5">
    <rdf:RDF>
      <cc:Work
         rdf:about="">
        <dc:format>image/svg+xml</dc:format>
        <dc:type
           rdf:resource="http://purl.org/dc/dcmitype/StillImage" />
        <dc:title></dc:title>
      </cc:Work>
    </rdf:RDF>
  </metadata>
  <g
     transform="translate(-74.830814,-154.94263)"
     id="layer1">
    <path
       id="path72"
       d="m 95.752229,186.73785 c -0.759274,-1.2858 -1.56748,-10.09272 -1.645387,-17.92956 -0.07041,-7.08266 -0.04117,-7.44518 0.651133,-8.07171 0.526168,-0.47617 1.023183,-0.59631 1.813234,-0.4383 1.701538,0.3403 2.849652,1.76963 5.195401,6.46791 0.75655,1.51528 1.71202,3.29945 2.12328,3.96484 0.41126,0.66539 0.65114,1.37977 0.53308,1.5875 -0.11807,0.20774 -0.084,0.25921 0.0758,0.11439 0.39709,-0.35996 1.66178,1.78889 1.36129,2.313 -0.13236,0.23087 -0.11893,0.31026 0.0299,0.17642 0.31896,-0.28694 1.25477,0.55801 2.1254,1.91903 1.0125,1.58281 1.589,1.24579 1.6595,-0.97014 0.0339,-1.06715 0.10151,-2.37684 0.15011,-2.91041 0.0486,-0.53358 0.16168,-4.25042 0.25129,-8.25964 0.0896,-4.00923 0.26955,-7.46204 0.39988,-7.67292 0.37893,-0.61312 1.58674,-0.44548 2.74801,0.38142 l 1.0741,0.76482 -0.24345,4.08587 c -0.1339,2.24723 -0.38084,6.38774 -0.54877,9.20114 -0.57899,9.70026 -0.8546,11.32932 -1.81621,10.73502 -0.17204,-0.10633 -0.3128,-0.0437 -0.3128,0.13915 0,0.56437 -1.71174,0.69407 -2.43884,0.18479 -0.97974,-0.68624 -2.85283,-2.59733 -2.85283,-2.91071 0,-0.14528 -0.39688,-0.63699 -0.88194,-1.09269 -0.48507,-0.4557 -0.88195,-1.02682 -0.88195,-1.26915 0,-0.24233 -0.39687,-0.91227 -0.88194,-1.48874 -0.48507,-0.57647 -0.88195,-1.19905 -0.88195,-1.3835 0,-0.18445 -0.32572,-0.63014 -0.72382,-0.99042 -0.3981,-0.36027 -1.31091,-1.7331 -2.02847,-3.05072 -0.717559,-1.31761 -1.463403,-2.34195 -1.65743,-2.2763 -0.532163,0.18007 -0.297952,8.25988 0.369641,12.75188 0.317197,2.13431 0.52254,4.35681 0.456318,4.93889 -0.109913,0.96612 -0.248222,1.06765 -1.587331,1.16523 -0.80681,0.0588 -1.542204,-0.0206 -1.634209,-0.17639 z m -18.330115,-1.05563 c -0.339549,-0.0887 -0.623881,-0.34813 -0.63185,-0.57644 -0.008,-0.2283 -0.07417,-4.2251 -0.14711,-8.88177 -0.116422,-7.43243 -0.244741,-9.00446 -1.050477,-12.86927 -0.50482,-2.42143 -0.840478,-4.60424 -0.745906,-4.85069 0.269247,-0.70165 1.685117,-0.52309 2.754868,0.34741 0.992826,0.80791 2.249581,4.46128 1.872609,5.44366 -0.09785,0.25499 -0.03942,0.46362 0.129851,0.46362 0.169267,0 0.403987,1.70656 0.5216,3.79236 0.117614,2.0858 0.273197,4.78251 0.345741,5.99271 0.0876,1.46135 0.0089,2.12432 -0.234402,1.97396 -0.223618,-0.1382 -0.258976,-0.0527 -0.09077,0.21943 0.151539,0.24519 0.335156,2.16304 0.408038,4.26189 0.164239,4.72978 -0.299636,5.42336 -3.132188,4.68313 z m 82.955236,-0.59453 c -3.06914,-0.82757 -4.37437,-2.06739 -6.17446,-5.86507 -0.47167,-0.99509 -0.57844,-2.28285 -0.55009,-6.63535 l 0.0352,-5.40063 1.44682,-3.299 c 1.86408,-4.25039 3.60798,-6.18446 5.57637,-6.18446 1.0877,0 1.50861,-0.18915 1.96255,-0.88194 0.53743,-0.82024 0.77722,-0.88195 3.42684,-0.88195 3.59309,0 4.93515,0.5767 6.93785,2.98125 0.24997,0.30011 1.02792,2.0143 1.72879,3.80929 1.23716,3.16848 1.27292,3.39219 1.22678,7.67335 -0.0528,4.8955 -0.12716,5.48254 -0.87905,6.93652 -0.64413,1.24563 -4.49783,4.90684 -5.4994,5.22473 -0.40467,0.12843 -0.73576,0.36926 -0.73576,0.53516 0,0.16591 -0.59531,0.48377 -1.32292,0.70636 -0.7276,0.2226 -1.64042,0.54006 -2.02847,0.70547 -0.38806,0.16542 -1.12737,0.39181 -1.64292,0.50309 -0.51555,0.11128 -1.15055,0.27175 -1.41111,0.3566 -0.26056,0.0849 -1.20421,-0.0427 -2.09699,-0.28342 z m 4.93285,-3.84851 c 3.17148,-1.68758 6.03187,-4.0436 6.68685,-5.50776 0.41418,-0.92585 0.57118,-2.37367 0.57779,-5.32824 0.009,-4.18738 -0.0752,-4.54087 -2.16308,-9.03892 -0.74981,-1.61537 -2.49782,-2.24034 -5.91837,-2.11603 -2.52031,0.0916 -2.85232,0.18654 -3.33596,0.95403 -0.2954,0.46877 -0.95393,1.40793 -1.46341,2.08703 -0.50948,0.6791 -1.35765,2.32742 -1.88483,3.66293 -0.85532,2.16682 -0.9626,2.91402 -0.99653,6.94112 -0.0361,4.28824 0.0115,4.61081 0.95695,6.47943 0.54723,1.08159 1.1391,1.96652 1.31526,1.96652 0.17615,0 0.55841,0.23812 0.84945,0.52917 0.88244,0.88244 3.00094,0.63446 5.37588,-0.62928 z m -34.87692,3.71973 c -0.28758,-0.11288 -0.70357,-0.38594 -0.92443,-0.60679 -0.43814,-0.43814 -1.12124,-8.79716 -1.18316,-14.47811 -0.0668,-6.13187 -0.34185,-9.37953 -0.96048,-11.34207 -0.55358,-1.75614 -0.55576,-1.94854 -0.0281,-2.47626 0.47578,-0.47578 0.86432,-0.51442 2.30603,-0.22936 1.635,0.32328 6.06178,-0.002 10.57335,-0.77783 1.02998,-0.17703 1.49933,-0.13316 1.49933,0.14016 0,0.21882 0.38701,0.39786 0.86002,0.39786 0.6533,0 0.84675,0.1762 0.8048,0.73306 -0.0797,1.05865 -1.79395,1.65361 -7.22422,2.50733 l -4.6856,0.73666 0.2074,3.60533 c 0.30175,5.24552 0.19352,4.94862 1.7842,4.89432 3.55875,-0.1215 9.19458,-0.5145 9.71559,-0.67749 0.31913,-0.0998 1.2403,0.0826 2.04704,0.40537 1.38124,0.55266 1.46057,0.66139 1.36003,1.86407 l -0.10676,1.27719 -3.88056,0.033 c -6.45153,0.0549 -11.19911,0.91089 -10.58282,1.90807 0.14556,0.23552 0.63938,7.46256 0.66828,9.78021 0.0136,1.08609 -0.17047,1.63369 -0.67788,2.01726 -0.76373,0.57733 -0.81229,0.58623 -1.57211,0.28799 z"
       style="fill:#000000;stroke-width:0.35277778" />
  </g>
</svg>
