<?xml version="1.0" encoding="UTF-8" standalone="no"?>
<svg
   xmlns:dc="http://purl.org/dc/elements/1.1/"
   xmlns:cc="http://creativecommons.org/ns#"
   xmlns:rdf="http://www.w3.org/1999/02/22-rdf-syntax-ns#"
   xmlns:svg="http://www.w3.org/2000/svg"
   xmlns="http://www.w3.org/2000/svg"
   id="svg8"
   version="1.1"
   viewBox="0 0 214.13612 32.193813"
   height="32.193813mm"
   width="214.13612mm">
  <defs
     id="defs2" />
  <metadata
     id="metadata5">
    <rdf:RDF>
      <cc:Work
         rdf:about="">
        <dc:format>image/svg+xml</dc:format>
        <dc:type
           rdf:resource="http://purl.org/dc/dcmitype/StillImage" />
        <dc:title></dc:title>
      </cc:Work>
    </rdf:RDF>
  </metadata>
  <g
     transform="translate(1.6536585,-157.64048)"
     id="layer1">
    <path
       id="path91"
       d="m 0.92784347,189.11803 c -1.48305437,-1.60852 -2.58150197,-9.86499 -2.58150197,-19.40383 0,-6.31585 0.077303,-7.38694 0.5461157,-7.56684 0.30690672,-0.11777 0.73774961,0.0525 0.98361739,0.38876 0.24062585,0.32907 0.59018631,0.55566 0.77680117,0.50352 1.09255914,-0.30526 2.80880614,1.4312 5.63096604,5.69727 0.5820834,0.8799 1.4948959,2.16589 2.0284723,2.85776 0.5335764,0.69187 0.9701389,1.3705 0.9701389,1.50806 0,0.29715 3.732832,5.0184 4.192282,5.30236 0.187029,0.11559 0.2536,-3.23086 0.161648,-8.12578 -0.134427,-7.15594 -0.07853,-8.44106 0.398832,-9.16961 0.700735,-1.06945 1.643839,-1.07681 2.869678,-0.0224 0.90591,0.77923 0.937848,0.90826 0.576852,2.33047 -0.491492,1.93633 -0.365818,9.86907 0.247431,15.61835 0.534563,5.01158 0.390777,5.56794 -1.438993,5.56794 -0.74786,0 -1.465333,-0.44801 -2.690832,-1.68022 -2.698,-2.71277 -5.731998,-6.37388 -8.3314997,-10.05357 -1.3349055,-1.88961 -2.565218,-3.43565 -2.7340279,-3.43565 -0.1688094,0 -0.3257747,0.59531 -0.3488115,1.32291 -0.023036,0.72761 -0.089519,2.03729 -0.1477377,2.91042 -0.058219,0.87312 0.2256289,4.1275 0.6307734,7.23194 0.4051442,3.10445 0.7494387,6.35882 0.7650989,7.23195 0.025918,1.44512 -0.05167,1.59685 -0.8650994,1.69174 -0.5763182,0.0672 -1.1586559,-0.18328 -1.64020363,-0.70556 z M 138.80455,186.47768 c -0.65014,-0.32178 -1.58513,-1.19412 -2.07775,-1.93852 -0.88318,-1.33457 -0.88932,-1.39158 -0.4394,-4.08386 0.25096,-1.50172 0.58723,-3.08895 0.74727,-3.52719 0.24812,-0.67945 0.53818,-3.47762 1.51965,-14.66006 0.16283,-1.8552 0.66309,-2.7112 1.58446,-2.7112 0.88096,0 1.81374,0.79842 1.86263,1.59432 0.10591,1.72408 -0.52456,10.13849 -0.95107,12.69318 -0.84287,5.04861 -1.3577,8.99582 -1.1946,9.15893 0.0878,0.0878 2.53441,0.21427 5.43692,0.28107 6.1762,0.14213 6.95236,0.41395 6.79029,2.37805 l -0.10188,1.23473 -5.99722,0.0828 c -4.99222,0.0689 -6.19532,-0.0152 -7.1793,-0.50225 z m 14.98252,-0.21193 c -0.70009,-0.70009 -0.83891,-1.2996 -1.04149,-4.49791 -0.12855,-2.02959 -0.31352,-4.16641 -0.41104,-4.74849 -0.0975,-0.58208 -0.25565,-1.53458 -0.35141,-2.11667 -0.0957,-0.58208 -0.33321,-3.01459 -0.5277,-5.40558 -0.42287,-5.19879 -0.2403,-5.81177 1.68163,-5.64618 1.22659,0.10567 1.29667,0.0505 1.65,-1.29811 0.62537,-2.38696 0.95955,-2.72982 2.39776,-2.46001 1.09551,0.20552 1.36321,0.46589 1.99931,1.94454 0.40394,0.93899 0.73444,1.79794 0.73444,1.90879 0,0.22827 2.30387,6.16662 3.01897,7.78155 0.25775,0.58209 1.03911,2.53824 1.73637,4.34702 1.4705,3.81467 1.78168,4.41652 3.09397,5.98401 1.19589,1.42846 1.29463,3.05243 0.22052,3.62727 -0.60831,0.32556 -0.92007,0.27391 -1.65395,-0.27401 -0.87114,-0.6504 -4.28091,-5.90621 -4.30047,-6.62873 -0.0253,-0.93262 -0.75804,-1.32466 -2.77793,-1.48616 -2.07093,-0.16558 -2.16171,-0.13859 -2.20862,0.65674 -0.0269,0.45618 -0.0845,1.22629 -0.12807,1.71136 -0.0435,0.48507 -0.1009,2.10092 -0.12748,3.59077 -0.0659,3.69504 -1.1918,4.82281 -3.00481,3.0098 z m 5.16287,-15.43328 c -0.58193,-1.39391 -1.14152,-2.39772 -1.24354,-2.2307 -0.10201,0.16703 -0.29828,1.36391 -0.43616,2.65972 l -0.25069,2.35604 1.18493,0.12036 c 0.65171,0.0662 1.32411,0.01 1.49423,-0.12534 0.17012,-0.13514 -0.16683,-1.38617 -0.74877,-2.78008 z m 37.30474,13.70251 c -2.54806,-1.73382 -4.07995,-5.7844 -4.7769,-12.63091 -0.28638,-2.8134 -0.73589,-6.86153 -0.99889,-8.99583 -0.50487,-4.0971 -0.37177,-4.90142 0.86462,-5.22475 1.21473,-0.31765 2.43603,1.16838 2.46872,3.00385 0.0148,0.83344 0.0714,1.75347 0.12572,2.04451 0.22125,1.18583 0.54792,4.22055 0.7405,6.87917 0.35558,4.90882 0.8731,7.67827 1.83559,9.823 l 0.93423,2.08173 6.72335,-0.16872 c 7.23907,-0.18166 8.31084,-0.006 8.31084,1.36526 0,1.40162 -1.29116,1.89489 -5.3303,2.03634 -2.01604,0.0706 -5.01491,0.24046 -6.66414,0.37744 -2.79458,0.23213 -3.08263,0.19191 -4.23334,-0.59109 z m -21.94136,-0.39158 c -0.99218,-0.91952 -1.08455,-1.52503 -1.70577,-11.181 -0.20597,-3.20145 -0.51541,-6.37645 -0.68765,-7.05555 -0.9737,-3.83908 -0.69352,-5.29167 1.02066,-5.29167 1.22246,0 1.78426,0.62021 1.96872,2.17339 0.077,0.6479 0.31031,2.52738 0.51859,4.17661 0.20828,1.64924 0.44314,4.03049 0.52192,5.29167 0.24198,3.87387 0.64897,8.46666 0.75027,8.46666 0.0529,0 1.49773,-0.33427 3.21079,-0.74283 4.52411,-1.07899 8.32768,-0.4999 8.80234,1.34015 0.33687,1.30588 -0.10782,1.50349 -3.32197,1.47619 -2.5543,-0.0217 -3.60568,0.15716 -6.24626,1.06261 -1.74625,0.59879 -3.35026,1.09063 -3.56446,1.09296 -0.2142,0.002 -0.78443,-0.36179 -1.26718,-0.80919 z M 25.267286,183.72407 c -0.994263,-0.69641 -1.027314,-0.92567 -1.754882,-12.17278 -0.377688,-5.83849 -0.342768,-6.16546 0.806039,-7.54721 1.862851,-2.24058 3.528686,-1.4034 5.76652,2.898 0.778303,1.49599 1.931856,3.27312 2.563455,3.94918 0.6316,0.67606 1.397357,1.8642 1.70168,2.64031 0.304328,0.77611 1.37673,2.65308 2.383117,4.17104 1.885015,2.84321 2.16668,3.75326 1.367056,4.41688 -0.975007,0.80919 -2.761735,-0.64593 -4.605976,-3.75114 l -1.736817,-2.92432 -1.624318,0.24637 c -0.893375,0.1355 -1.841268,0.24759 -2.10643,0.24909 -0.390147,0.002 -0.442465,0.71025 -0.274269,3.71182 0.214618,3.83 0.01411,4.63998 -1.148597,4.63998 -0.321125,0 -0.922585,-0.23725 -1.336578,-0.52722 z m 3.231357,-11.46334 0.917675,-0.3489 -0.806515,-1.41227 c -0.443584,-0.77675 -0.925578,-1.4135 -1.071099,-1.41499 -0.145521,-0.002 -0.264584,0.79103 -0.264584,1.76117 0,0.97014 0.06904,1.76389 0.153423,1.76389 0.08438,0 0.566378,-0.15701 1.0711,-0.3489 z m 80.278177,11.53947 c -0.8878,-0.44924 -2.26637,-3.58867 -3.23443,-7.36584 -0.436,-1.70117 -0.44374,-1.70807 -1.91743,-1.70807 -1.77968,0 -1.90045,0.27807 -1.91511,4.40972 -0.0113,3.16852 -0.54134,4.64594 -1.60669,4.47794 -0.37729,-0.0595 -0.941996,-0.40735 -1.254906,-0.77301 -0.499266,-0.58344 -0.553823,-1.80118 -0.445594,-9.94599 0.116826,-8.79204 0.160754,-9.31202 0.833505,-9.86687 0.390599,-0.32214 0.71018,-0.84318 0.71018,-1.15786 0,-0.31468 0.230025,-1.12267 0.511165,-1.79553 0.42493,-1.017 0.69276,-1.2234 1.5875,-1.2234 0.59199,0 1.37561,0.29928 1.74139,0.66506 0.8397,0.8397 1.99962,3.91332 2.97744,7.8898 0.64842,2.6369 0.86506,3.08681 1.48633,3.08681 1.59965,0 2.16264,2.0171 0.82458,2.95432 -0.94852,0.66437 -0.75915,1.87356 1.0224,6.52846 1.22059,3.18919 1.24255,3.32669 0.6057,3.79236 -0.79965,0.58472 -0.83283,0.58527 -1.92603,0.0321 z m -4.77801,-12.94721 c 0.25381,-0.41067 -0.52322,-3.18225 -0.89216,-3.18225 -0.32822,0 -0.67985,1.31092 -0.68604,2.55764 -0.004,0.72677 0.16695,0.97014 0.67991,0.97014 0.37661,0 0.78084,-0.15549 0.89829,-0.34553 z M 44.60767,182.4806 c -0.471053,-0.77458 -0.711962,-2.12248 -0.883172,-4.94137 -0.129484,-2.13193 -0.480744,-5.10543 -0.780581,-6.60778 -0.29984,-1.50235 -0.629373,-3.2078 -0.7323,-3.78988 -0.10293,-0.58208 -0.247272,-1.12015 -0.320763,-1.19571 -0.07349,-0.0756 -1.101178,0.1341 -2.283749,0.46592 -1.973774,0.55381 -2.220514,0.55718 -3.008225,0.0411 -0.947335,-0.62072 -1.119759,-1.65354 -0.378721,-2.26854 0.877465,-0.72823 4.252208,-1.70222 6.752573,-1.94887 1.358195,-0.13398 2.910057,-0.41553 3.448586,-0.62567 0.803963,-0.31371 1.103764,-0.26929 1.675695,0.2483 0.383102,0.34671 0.696553,1.06649 0.696553,1.59952 0,0.76986 -0.228449,1.04878 -1.110975,1.35644 -0.61104,0.213 -1.387803,0.38728 -1.726146,0.38728 -0.692502,0 -1.193821,0.92375 -0.675252,1.24425 0.185555,0.11468 0.337372,0.59749 0.337372,1.07292 0,0.47542 0.306875,2.25199 0.681945,3.94793 0.375069,1.69593 0.849908,4.81882 1.055193,6.93976 0.331036,3.42011 0.307573,3.92882 -0.207454,4.49792 -0.853306,0.94289 -1.80624,0.78406 -2.540579,-0.42347 z m 48.787475,0.72481 c -1.234225,-0.49953 -1.81072,-1.77554 -1.519759,-3.36384 0.313975,-1.71393 0.01443,-7.28203 -0.415975,-7.73201 -0.187279,-0.1958 -1.06099,-0.14342 -2.211564,0.1326 -1.046085,0.25095 -2.479992,0.3888 -3.186462,0.30632 -1.504371,-0.17563 -1.538231,-0.0238 -0.881419,3.95339 0.31809,1.9261 0.308981,2.55403 -0.04319,2.97838 -0.643138,0.77493 -1.270875,0.6658 -2.25111,-0.39133 -0.839555,-0.90543 -0.90925,-1.19663 -1.508506,-6.3029 -0.09108,-0.77612 -0.307093,-2.20487 -0.480025,-3.175 -0.778323,-4.36633 -0.787633,-5.2895 -0.06238,-6.18515 0.632245,-0.78079 0.768428,-0.81256 1.592492,-0.37154 1.097792,0.58752 1.211079,0.86312 1.500273,3.64969 0.125655,1.21079 0.298167,2.3205 0.383356,2.46602 0.237885,0.40636 3.147043,0.3138 4.123697,-0.13119 1.054954,-0.48067 1.270159,-1.19779 1.276407,-4.25333 0.0035,-1.66644 0.167079,-2.51831 0.559181,-2.91042 0.800223,-0.80022 2.101723,-0.68496 2.703227,0.23939 0.445191,0.68414 0.660735,1.43056 1.183823,4.09958 0.05213,0.26599 0.257422,1.21849 0.456205,2.11667 0.83922,3.79196 1.112182,13.82053 0.399539,14.67921 -0.49845,0.6006 -0.589598,0.61161 -1.617804,0.19546 z M 53.767782,182.0154 c -0.629966,-1.01931 -0.780701,-2.14532 -1.121597,-8.37848 -0.483256,-8.83617 -0.483189,-8.83808 0.332528,-9.51365 0.36449,-0.30187 0.768717,-0.88285 0.898278,-1.29106 0.885416,-2.7897 3.765575,-1.40917 6.236618,2.98936 0.625866,1.11406 2.18458,3.57185 3.463808,5.46177 3.042719,4.49528 5.324483,8.40752 5.324483,9.12919 0,0.31756 -0.2503,0.7851 -0.556225,1.039 -0.989563,0.82126 -2.639889,-0.45631 -3.825053,-2.96111 -0.566438,-1.19714 -1.416128,-2.68917 -1.888194,-3.3156 l -0.858305,-1.13898 -2.697917,0.21807 c -1.483854,0.11994 -2.746122,0.25735 -2.805035,0.30535 -0.05891,0.048 0.09097,1.79138 0.333075,3.87417 0.416514,3.58318 0.404417,3.81305 -0.224893,4.27321 -1.061286,0.77603 -1.830595,0.57241 -2.611571,-0.69124 z m 3.266355,-10.35561 c 0.134352,-0.13435 0.593979,-0.29764 1.021391,-0.36287 0.427415,-0.0652 0.910029,-0.2515 1.072472,-0.41395 0.29851,-0.29851 -2.171855,-4.25839 -2.661518,-4.26629 -0.14552,-0.002 -0.264583,1.18635 -0.264583,2.64156 0,2.44398 0.203264,3.03053 0.832238,2.40155 z m 13.675086,9.32127 c -0.500539,-0.93526 -0.065,-2.37421 0.718615,-2.37421 0.459299,0 4.521535,-1.75265 5.139567,-2.21746 0.297857,-0.22401 0.328069,-0.52318 0.09653,-0.95582 -0.430767,-0.80489 -3.525845,-2.86735 -3.929024,-2.61817 -0.167876,0.10376 -0.30523,0.0205 -0.30523,-0.18495 0,-0.20548 -0.244451,-0.3736 -0.543222,-0.3736 -0.970474,0 -3.31156,-1.3966 -3.934333,-2.34707 -1.90561,-2.90833 1.291893,-8.58904 4.83452,-8.58904 0.862746,0 1.529179,1.22875 1.256238,2.31623 -0.179737,0.71614 -0.364906,0.80857 -1.260874,0.62937 -0.988663,-0.19773 -1.100995,-0.10039 -1.917188,1.66128 -0.476846,1.02922 -0.789334,1.99697 -0.694415,2.15055 0.09492,0.15359 0.761146,0.53062 1.480509,0.83786 4.979565,2.12679 7.418879,4.0801 8.290765,6.63894 0.770301,2.26072 0.168925,3.13748 -3.207374,4.67611 -1.489989,0.67901 -3.349819,1.32238 -4.132958,1.42973 -1.254418,0.17193 -1.479613,0.091 -1.892123,-0.67975 z"
       style="fill:#000000;stroke-width:0.35277778" />
  </g>
</svg>
