<?xml version="1.0" encoding="UTF-8" standalone="no"?>
<svg
   xmlns:dc="http://purl.org/dc/elements/1.1/"
   xmlns:cc="http://creativecommons.org/ns#"
   xmlns:rdf="http://www.w3.org/1999/02/22-rdf-syntax-ns#"
   xmlns:svg="http://www.w3.org/2000/svg"
   xmlns="http://www.w3.org/2000/svg"
   id="svg8"
   version="1.1"
   viewBox="0 0 122.34943 32.86338"
   height="32.86338mm"
   width="122.34943mm">
  <defs
     id="defs2" />
  <metadata
     id="metadata5">
    <rdf:RDF>
      <cc:Work
         rdf:about="">
        <dc:format>image/svg+xml</dc:format>
        <dc:type
           rdf:resource="http://purl.org/dc/dcmitype/StillImage" />
        <dc:title></dc:title>
      </cc:Work>
    </rdf:RDF>
  </metadata>
  <g
     transform="translate(-28.903062,-205.20977)"
     id="layer1">
    <path
       id="path657"
       d="m 140.90839,237.92516 c -0.5134,-0.0789 -1.22567,-0.46631 -1.58281,-0.86095 -0.63123,-0.69749 -0.63037,-0.7314 0.0308,-1.21483 0.63152,-0.46177 1.55012,-0.65282 2.54712,-0.52974 0.22791,0.0281 0.51509,-0.11181 0.63819,-0.31098 0.12308,-0.19918 0.50399,-0.36214 0.84643,-0.36214 0.73443,0 3.91221,-2.18717 4.37232,-3.00933 0.43355,-0.77473 -0.23569,-2.29491 -1.43259,-3.25412 -0.52699,-0.42234 -3.02192,-2.40053 -5.54428,-4.39597 -5.35822,-4.23889 -6.18375,-5.41446 -5.48286,-7.80767 0.30892,-1.05484 1.15817,-2.18504 3.0341,-4.03789 2.90073,-2.86504 5.22844,-4.15325 6.57771,-3.64025 2.03091,0.77215 2.05306,2.27883 0.0417,2.8342 -2.57755,0.71169 -6.46369,4.51558 -6.46369,6.32687 0,0.66302 1.07824,1.76126 3.51341,3.57861 0.64997,0.48507 1.69701,1.27882 2.32675,1.76389 0.62974,0.48507 1.59429,1.19944 2.14345,1.5875 1.52892,1.08039 3.75293,3.61831 4.40341,5.02493 0.89093,1.9266 0.19911,3.81306 -2.12928,5.80607 -2.73608,2.34198 -4.73285,2.97918 -7.83982,2.5018 z M 34.773812,236.77578 c -4.534427,-0.95136 -6.305427,-1.97393 -5.781824,-3.33842 0.283434,-0.73862 1.570566,-0.7032 4.927151,0.1356 3.209173,0.80196 4.023836,0.59448 5.339421,-1.35986 0.977615,-1.45227 1.078432,-4.05237 0.251258,-6.48 -0.600238,-1.7616 -3.072049,-4.84491 -3.884043,-4.84491 -0.274551,0 -0.499185,-0.13464 -0.499185,-0.2992 0,-0.16456 -0.625741,-0.58137 -1.390536,-0.92624 -0.764796,-0.34488 -1.949424,-1.13897 -2.632507,-1.76465 -1.208119,-1.10659 -1.239229,-1.20101 -1.141405,-3.46406 l 0.100564,-2.32647 2.443748,-2.52755 c 3.31848,-3.43228 4.7951,-4.34163 7.094185,-4.36882 1.5576,-0.0184 1.988405,0.13175 2.910417,1.01452 1.366083,1.30794 1.468168,2.66803 0.200256,2.66803 -0.485069,0 -0.881944,-0.14322 -0.881944,-0.31827 0,-0.17505 -0.459576,-0.47847 -1.021279,-0.67429 -0.887926,-0.30953 -1.244921,-0.20475 -2.734028,0.80241 -1.72819,1.16887 -3.312843,2.92664 -4.551999,5.0493 -0.87594,1.50047 -0.606835,1.92598 2.544446,4.02326 5.369805,3.57378 8.2561,9.31877 7.039022,14.01073 -1.090392,4.20357 -3.940542,5.91019 -8.331718,4.98889 z m 34.627069,-2.04106 c -0.21094,-0.53358 -0.461836,-1.68452 -0.557544,-2.55764 -0.09571,-0.87312 -0.349628,-2.77812 -0.564261,-4.23333 -0.214634,-1.45521 -0.442151,-3.12209 -0.505598,-3.70417 -0.231983,-2.12831 -0.630244,-3.70417 -0.936149,-3.70417 -0.172434,0 -0.3146,0.19844 -0.315926,0.44098 -0.0028,0.51076 -1.811888,1.80377 -3.34898,2.39361 -0.582083,0.22336 -2.68464,0.43102 -4.672348,0.46146 l -3.614015,0.0553 -0.0017,1.23472 c -9.17e-4,0.6791 0.160526,2.94505 0.358756,5.03545 0.398601,4.20338 0.169394,5.19511 -1.200689,5.19511 -1.564216,0 -1.880847,-0.88933 -2.13521,-5.99722 -0.289009,-5.80362 -0.406173,-7.0024 -1.275719,-13.05278 -0.818489,-5.69511 -0.818174,-5.68473 -0.197758,-6.5332 0.417211,-0.57057 0.624913,-0.60959 1.389754,-0.2611 1.010644,0.46048 1.642352,2.19974 1.645535,4.5306 0.0011,0.79226 0.179469,2.37976 0.396414,3.52778 0.529787,2.80349 1.520753,3.67139 4.191665,3.67109 2.374483,-2.6e-4 4.421397,-0.53712 5.265222,-1.38095 0.710195,-0.71019 1.944599,-4.57725 2.316953,-7.25839 0.134733,-0.97013 0.408298,-1.96232 0.607924,-2.20486 0.92154,-1.11961 3.100197,0.0417 3.32334,1.77151 0.609511,4.72486 1.149642,9.38241 1.338953,11.54585 0.127339,1.45521 0.404901,3.28084 0.616804,4.05695 0.211903,0.77611 0.434714,1.72861 0.495134,2.11666 0.06042,0.38806 0.269586,1.62448 0.464813,2.74761 0.461896,2.65729 0.276299,3.07323 -1.37131,3.07323 -1.123368,0 -1.390294,-0.15108 -1.714098,-0.97014 z m 36.047699,0.26506 c -0.75383,-0.30398 -0.99133,-0.74953 -1.31659,-2.46992 -0.0917,-0.48507 -0.34027,-1.75507 -0.55237,-2.82222 -0.39834,-2.0043 -0.56242,-3.68191 -0.86257,-8.81945 -0.0964,-1.64923 -0.27268,-4.66548 -0.39183,-6.70278 -0.17162,-2.93433 -0.1108,-3.84672 0.29265,-4.39012 0.48465,-0.65277 0.55342,-0.65704 1.42159,-0.0882 0.50177,0.32877 1.06041,0.87557 1.24142,1.21512 0.18102,0.33955 0.41306,3.44996 0.51564,6.91202 0.10259,3.46207 0.25414,6.36229 0.33679,6.44494 0.0827,0.0827 0.58211,-1.47995 1.10991,-3.47244 1.45824,-5.50501 3.11425,-8.46543 4.54438,-8.12391 0.94355,0.22532 3.41954,2.52359 3.41954,3.17409 0,0.25849 0.2289,0.82159 0.50866,1.25132 0.27976,0.42974 0.58094,1.17822 0.6693,1.66329 0.0884,0.48506 0.31918,1.27881 0.51294,1.76388 0.19376,0.48507 0.54629,1.59632 0.7834,2.46945 0.23711,0.87312 0.51775,1.82562 0.62363,2.11666 0.10589,0.29105 0.21648,0.60855 0.24577,0.70556 0.64601,2.13986 1.04319,3.175 1.21822,3.175 0.27866,0 1.6376,-4.09282 2.34265,-7.05555 0.30013,-1.26119 0.75979,-2.85511 1.02147,-3.54207 0.26167,-0.68696 0.9113,-3.04273 1.44361,-5.23506 0.53232,-2.19233 1.15453,-4.05769 1.38271,-4.14525 1.32563,-0.50869 3.52698,1.78911 2.70442,2.82293 -0.17419,0.21893 -0.67216,1.58868 -1.10659,3.04389 -0.43443,1.45521 -1.16844,3.68108 -1.63114,4.94637 -0.4627,1.2653 -0.84127,2.52806 -0.84127,2.80615 0,0.75665 -2.09368,8.10418 -2.73772,9.60771 -0.66873,1.56116 -1.22588,1.83351 -2.73322,1.33604 -0.89947,-0.29685 -1.35023,-0.82473 -2.21007,-2.58823 -0.59408,-1.21842 -1.34917,-3.07899 -1.67798,-4.13459 -0.32882,-1.05561 -0.9706,-3.06943 -1.42619,-4.47516 -0.45559,-1.40573 -0.99954,-3.19167 -1.20879,-3.96875 -0.20925,-0.77708 -0.5156,-1.41287 -0.68078,-1.41287 -0.58307,0 -1.88651,3.3902 -2.50923,6.52639 -1.49717,7.54024 -1.74936,8.93116 -1.74936,9.64839 0,0.73438 -1.13806,2.19274 -1.67569,2.1473 -0.14552,-0.0123 -0.60781,-0.16077 -1.02731,-0.32994 z m -19.270565,-1.07945 c -2.30341,-0.3885 -4.391466,-3.00249 -5.37892,-6.73372 -0.348964,-1.31862 -0.340271,-2.26814 0.04447,-4.85644 0.263031,-1.76955 0.630234,-3.50136 0.816,-3.84847 0.185769,-0.34711 0.255047,-1.25734 0.153952,-2.02273 -0.114575,-0.86743 0.04145,-1.98958 0.414217,-2.97911 0.328913,-0.87313 0.624932,-2.15837 0.657818,-2.8561 0.115665,-2.45404 1.955567,-3.2134 4.639434,-1.91478 2.152369,1.04144 3.178789,1.96382 4.707779,4.23056 2.45636,3.64158 2.89829,8.32892 1.24023,13.15456 -0.51621,1.50237 -1.03949,2.81097 -1.16286,2.90798 -0.12336,0.097 -0.42143,0.62467 -0.66239,1.17257 -0.69918,1.58986 -2.540191,3.68366 -3.370613,3.83342 -0.419671,0.0757 -1.364276,0.0362 -2.099115,-0.0877 z m 1.965162,-3.7801 c 0.515617,-0.53819 1.535378,-2.16537 2.266138,-3.61597 1.2606,-2.50238 1.3283,-2.8091 1.32174,-5.98885 -0.006,-2.97206 -0.12071,-3.57859 -1.01236,-5.35884 -1.229985,-2.45575 -2.741285,-3.99897 -3.595314,-3.67125 -0.464329,0.17818 -0.511288,0.33171 -0.197449,0.64555 0.594677,0.59468 0.505784,2.05149 -0.170801,2.79911 -1.731398,1.91317 -3.437188,8.29455 -3.073584,11.49831 0.23749,2.09258 1.830878,4.67046 2.886809,4.67046 0.350538,0 1.059208,-0.44034 1.574821,-0.97852 z"
       style="fill:#000000;stroke-width:0.35277775" />
  </g>
</svg>
