<?xml version="1.0" encoding="UTF-8" standalone="no"?>
<svg
   xmlns:dc="http://purl.org/dc/elements/1.1/"
   xmlns:cc="http://creativecommons.org/ns#"
   xmlns:rdf="http://www.w3.org/1999/02/22-rdf-syntax-ns#"
   xmlns:svg="http://www.w3.org/2000/svg"
   xmlns="http://www.w3.org/2000/svg"
   id="svg8"
   version="1.1"
   viewBox="0 0 100.32303 32.953785"
   height="32.953785mm"
   width="100.32303mm">
  <defs
     id="defs2" />
  <metadata
     id="metadata5">
    <rdf:RDF>
      <cc:Work
         rdf:about="">
        <dc:format>image/svg+xml</dc:format>
        <dc:type
           rdf:resource="http://purl.org/dc/dcmitype/StillImage" />
        <dc:title></dc:title>
      </cc:Work>
    </rdf:RDF>
  </metadata>
  <g
     transform="translate(-48.404117,-240.89573)"
     id="layer1">
    <path
       id="path740"
       d="m 123.87135,273.42386 c -0.98819,-0.49328 -1.28123,-0.90867 -1.62574,-2.30453 -0.23114,-0.93653 -0.62801,-1.96337 -0.88194,-2.28186 -0.25393,-0.3185 -0.69981,-0.89037 -0.99085,-1.27083 -0.29104,-0.38046 -1.03753,-1.23549 -1.65887,-1.90006 -2.56121,-2.73946 -5.27278,-5.90744 -6.07548,-7.09814 -0.47036,-0.6977 -0.99002,-1.35959 -1.1548,-1.47086 -0.16478,-0.11127 -0.37154,-0.57587 -0.45947,-1.03244 -0.0879,-0.45656 -0.32233,-0.99258 -0.5209,-1.19115 -0.35324,-0.35324 -0.50359,3.68277 -0.53296,14.30622 -0.006,2.26555 -0.12149,4.2293 -0.25606,4.36387 -0.29325,0.29325 -2.65195,-0.10634 -2.88867,-0.48937 -0.3792,-0.61356 -0.5003,-12.63786 -0.16286,-16.17038 0.20058,-2.09977 0.47021,-5.88152 0.59918,-8.40388 l 0.2345,-4.58611 1.23472,-0.1128 c 0.75149,-0.0687 1.64893,-0.49986 2.29306,-1.10176 1.44193,-1.34742 2.73074,-1.59193 4.60936,-0.87447 1.6473,0.6291 2.51096,1.61353 2.62804,2.99549 0.21494,2.53704 -0.0407,3.45511 -1.57544,5.65878 -0.86349,1.23981 -1.88676,2.82633 -2.27393,3.52558 l -0.70395,1.27138 1.30379,1.95904 c 0.71709,1.07747 3.02129,3.83781 5.12044,6.13408 4.10515,4.49062 5.53197,6.79941 5.53197,8.95146 0,1.70172 -0.28091,1.87761 -1.79314,1.12274 z m -12.84714,-20.51707 c 0,-0.15254 0.79375,-1.28238 1.76389,-2.51074 3.01049,-3.8118 3.65262,-6.13798 1.62958,-5.90333 -0.67478,0.0783 -1.27893,0.64068 -2.23978,2.08506 -1.11559,1.67699 -1.35113,2.37466 -1.54829,4.58611 -0.13526,1.51722 -0.10137,2.48526 0.081,2.31425 0.17246,-0.16169 0.31357,-0.4188 0.31357,-0.57135 z m 20.99028,18.58277 c -1.30956,-0.66774 -1.67368,-2.46616 -2.33726,-11.54383 -0.18034,-2.46708 -0.35078,-3.10342 -0.96156,-3.58987 -0.66796,-0.53201 -0.69937,-0.71014 -0.31339,-1.77753 0.26925,-0.7446 0.36289,-2.23194 0.25151,-3.99485 -0.0976,-1.54472 -0.25226,-3.95706 -0.34369,-5.36075 -0.16324,-2.50607 -0.14983,-2.55628 0.74283,-2.78032 0.66275,-0.16634 1.10917,-0.0281 1.64752,0.51027 0.64195,0.64195 0.7588,1.27031 0.89424,4.8088 0.0857,2.2387 0.30517,4.07036 0.48773,4.07036 0.18255,0 0.83727,-0.35758 1.45491,-0.79463 0.61764,-0.43705 1.38757,-0.95299 1.71094,-1.14653 0.32337,-0.19354 2.26758,-1.50283 4.32048,-2.90953 2.05288,-1.4067 3.80999,-2.55764 3.90466,-2.55764 0.0947,0 0.96515,-0.48794 1.93438,-1.08432 1.98955,-1.22418 3.01494,-1.1507 3.27984,0.23505 0.1304,0.68212 -0.0471,1.03086 -0.7548,1.48331 -0.50891,0.32534 -1.123,0.77996 -1.36464,1.01026 -0.24165,0.2303 -1.3529,0.93554 -2.46945,1.56718 -2.15036,1.2165 -8.32829,5.6589 -8.69514,6.25248 -0.11945,0.19327 0.43576,0.96076 1.23379,1.70553 0.79804,0.74476 2.28645,2.38599 3.30758,3.64717 1.02113,1.26118 2.26348,2.72658 2.76078,3.25644 0.49731,0.52986 1.3418,1.56173 1.87666,2.29306 0.53487,0.73132 1.43847,1.83419 2.008,2.45083 0.82148,0.8894 0.98634,1.31711 0.79758,2.06918 -0.21146,0.84254 -0.35988,0.92364 -1.3339,0.72883 -1.29769,-0.25954 -1.88038,-0.70196 -2.88567,-2.19101 -2.59182,-3.83901 -8.57906,-10.56109 -10.22937,-11.48485 -0.61654,-0.34511 -0.64723,-0.26357 -0.43856,1.16503 0.12341,0.84486 0.37328,3.39549 0.55528,5.66806 0.18199,2.27258 0.50723,4.46145 0.72276,4.86417 0.21553,0.40272 0.34336,1.39947 0.28405,2.215 -0.1199,1.64901 -0.6175,1.94411 -2.04809,1.21465 z m -76.589317,-0.85541 c -0.698362,-0.10796 -1.094885,-0.53915 -1.654576,-1.79923 -1.318159,-2.96769 -3.243212,-10.20068 -3.915059,-14.71002 -1.004835,-6.74432 -1.453255,-10.3683 -1.451415,-11.72986 0.0018,-1.32447 0.09573,-1.49931 0.805568,-1.49931 1.391427,0 1.933169,1.10603 2.361569,4.82139 0.219989,1.90789 0.621891,4.73889 0.893116,6.29111 0.271225,1.55222 0.578597,3.37785 0.683051,4.05694 0.342341,2.22571 0.843747,4.39094 1.266249,5.46806 0.389105,0.99198 0.432933,1.01215 0.699047,0.3218 0.156153,-0.4051 0.390442,-1.6751 0.520641,-2.82222 0.130199,-1.14713 0.385481,-2.57195 0.567292,-3.16627 0.181812,-0.59431 0.409181,-1.70556 0.505265,-2.46944 0.520813,-4.14051 2.522204,-10.22768 3.484107,-10.59679 0.242919,-0.0932 0.866352,-0.008 1.385406,0.18932 0.949115,0.36085 2.176958,2.55179 2.978311,5.31443 1.687061,5.8161 4.613957,12.97072 5.460043,13.34676 0.145521,0.0647 0.264584,0.31135 0.264584,0.54816 0,0.62054 2.407596,2.86508 2.728743,2.54393 0.148427,-0.14843 0.27369,-0.3757 0.278362,-0.50505 0.0047,-0.12935 0.19305,-0.94956 0.418619,-1.82269 0.600447,-2.32419 1.169654,-4.59357 1.504228,-5.99722 0.161869,-0.6791 0.552563,-2.10785 0.868208,-3.175 0.315645,-1.06715 0.719222,-3.05153 0.896838,-4.40972 0.362454,-2.77162 1.589588,-6.80809 2.290051,-7.53278 0.515949,-0.5338 1.653095,-0.29951 2.459292,0.50669 0.448024,0.44802 0.405677,0.83297 -0.337021,3.06369 -0.467185,1.40321 -1.024757,3.50379 -1.239048,4.66796 -0.214291,1.16416 -0.845634,3.70416 -1.402985,5.64444 -0.55735,1.94028 -1.340989,5.1737 -1.741418,7.18538 -0.40043,2.01168 -0.927348,4.07543 -1.170929,4.58611 -0.938025,1.96661 -4.033825,1.06673 -6.846946,-1.99025 -2.24178,-2.43612 -4.769084,-7.83856 -7.046036,-15.0618 -0.513306,-1.62838 -0.587485,-1.70497 -1.045129,-1.0791 -0.270935,0.37052 -0.492608,1.01193 -0.492608,1.42535 0,0.41343 -0.222236,1.45465 -0.493857,2.31383 -0.271622,0.85918 -0.678453,2.9909 -0.90407,4.73715 -0.225617,1.74625 -0.555561,3.73754 -0.733209,4.4251 -0.177649,0.68755 -0.428802,2.67193 -0.558119,4.40972 -0.239712,3.22132 -0.605157,4.78887 -1.094374,4.69426 -0.150324,-0.0291 -0.68663,-0.11675 -1.191791,-0.19483 z m 31.811608,-3.54522 c -2.039306,-1.03987 -2.650687,-2.22699 -2.79611,-5.42923 -0.07679,-1.69092 0.06077,-3.48655 0.342752,-4.4741 0.259059,-0.90728 0.481609,-1.72897 0.494556,-1.82598 0.181497,-1.36003 2.954902,-7.63374 4.061848,-9.18831 0.610027,-0.8567 0.616222,-0.96894 0.08291,-1.50225 -0.533308,-0.53331 -0.527925,-0.6299 0.07209,-1.2929 0.405571,-0.44816 1.090454,-0.71654 1.828504,-0.71654 0.649022,0 1.180045,-0.13891 1.180045,-0.30868 0,-0.16978 0.498976,-0.40848 1.108837,-0.53045 1.187923,-0.23758 2.066163,0.22789 2.066163,1.09508 0,0.28728 0.699766,1.30064 1.555034,2.2519 2.047811,2.27766 2.678299,4.22199 2.678299,8.25949 0,3.26859 -0.543154,5.5782 -1.955073,8.31341 -0.766519,1.48492 -3.991046,4.65498 -5.501351,5.40842 -1.470413,0.73354 -3.713,0.70781 -5.218501,-0.0599 z m 4.701237,-3.19256 c 1.788774,-1.22772 3.849593,-4.02861 4.575295,-6.21834 0.348347,-1.05111 0.576171,-2.90401 0.576171,-4.68604 0,-2.43885 -0.151073,-3.24562 -0.875443,-4.6751 -1.065117,-2.1019 -2.187921,-3.01409 -2.940858,-2.38921 -1.228125,1.01925 -3.663664,5.39394 -4.588521,8.24184 -1.948046,5.9986 -2.038914,9.58755 -0.273618,10.8068 0.585488,0.40439 1.991632,-0.0262 3.526974,-1.07995 z"
       style="fill:#000000;stroke-width:0.35277778" />
  </g>
</svg>
